<svg xmlns="http://www.w3.org/2000/svg" viewBox="0 0 1266.29 279.26"><defs><style>.cls-1{fill:#964beb;}.cls-2{fill:#fff;}</style></defs><title>mavennet-logo2</title><g id="Layer_2" data-name="Layer 2"><g id="Layer_1-2" data-name="Layer 1"><path class="cls-1" d="M189.67,198.51a77.41,77.41,0,0,1-120.92,0,25.88,25.88,0,0,0-20.16-9.7H5.93a129.24,129.24,0,0,0,246.56,0H209.83A25.88,25.88,0,0,0,189.67,198.51Z"/><path class="cls-1" d="M219.64,22.47a180.78,180.78,0,0,1-90.43,24.19A180.83,180.83,0,0,1,38.78,22.47L0,0V111.29A51.68,51.68,0,0,0,51.69,163V85.07q6.93,2.46,14,4.45a51.67,51.67,0,0,1,37.66,49.73v36.63h51.69V139.25a51.67,51.67,0,0,1,37.66-49.73q7.08-2,14-4.45V163a51.68,51.68,0,0,0,51.69-51.68V0Z"/><polygon class="cls-2" points="409.01 125.33 362.61 63.53 335.96 63.53 335.96 201.73 367.55 201.73 367.55 115.46 407.63 168.96 410.39 168.96 450.47 115.46 450.47 201.73 482.06 201.73 482.06 63.53 455.4 63.53 409.01 125.33"/><path class="cls-2" d="M579.79,117c-7.3-9.09-18-14.61-31.79-14.61-26.85,0-46.19,20.92-46.19,50.93,0,29.82,19.34,50.94,46.19,50.94,13.83,0,24.49-5.72,31.79-14.61v12h29V105h-29Zm0,49.55C573.87,175.08,566,179,556.69,179c-15.59,0-25.07-10.46-25.07-25.67,0-15.4,9.48-25.66,25.07-25.66,9.28,0,17.18,3.75,23.1,12.44Z"/><polygon class="cls-2" points="676.14 168.37 650.28 104.99 619.28 104.99 619.28 106.18 661.53 201.73 690.75 201.73 732.81 106.18 732.81 104.99 701.81 104.99 676.14 168.37"/><path class="cls-2" d="M786.12,102.43c-32.38,0-51.93,22.11-51.93,50.54,0,30.6,21.72,51.33,57.46,51.33,17,0,29.42-4.54,39.88-12l-9.67-20.93c-8.49,5.73-17,8.89-28.24,8.89-13.62,0-24.09-5.14-28.43-14.81h70.68C840,125.92,819.68,102.43,786.12,102.43Zm-22.31,42.45c2.57-12.44,10.46-19.35,22.51-19.35,11.84,0,19.35,5.92,21.32,19.35Z"/><path class="cls-2" d="M912.28,102.43c-13.62,0-23.49,4.93-31.39,14.41V105h-29v96.74h29v-61c6.71-8.29,14-12.44,22.7-12.44,9.68,0,16,5.73,16,14.81v58.63h29v-61.2C948.61,117.43,935.18,102.43,912.28,102.43Z"/><path class="cls-2" d="M1027.78,102.43c-13.62,0-23.49,4.93-31.39,14.41V105h-29v96.74h29v-61c6.71-8.29,14-12.44,22.71-12.44,9.67,0,16,5.73,16,14.81v58.63h29v-61.2C1064.11,117.43,1050.69,102.43,1027.78,102.43Z"/><path class="cls-2" d="M1131.44,102.43c-32.38,0-51.93,22.11-51.93,50.54,0,30.6,21.72,51.33,57.46,51.33,17,0,29.42-4.54,39.88-12l-9.67-20.93c-8.49,5.73-17,8.89-28.24,8.89-13.62,0-24.09-5.14-28.43-14.81h70.68C1185.34,125.92,1165,102.43,1131.44,102.43Zm-22.31,42.45c2.57-12.44,10.46-19.35,22.51-19.35,11.84,0,19.35,5.92,21.32,19.35Z"/><path class="cls-2" d="M1266.29,130.46V105H1234.5V75.38h-29V105h-16.19v25.47h16.19v40.28c0,23.1,15.4,33.56,36.13,33.56a54.24,54.24,0,0,0,23.5-4.74V174.49a37.22,37.22,0,0,1-17,4.14c-8.1,0-13.63-3.35-13.63-11.84V130.46Z"/></g></g></svg>