<?xml version="1.0" encoding="UTF-8"?>
<svg width="76px" height="17px" viewBox="0 0 76 17" version="1.1" xmlns="http://www.w3.org/2000/svg" xmlns:xlink="http://www.w3.org/1999/xlink">
    <title>6C91B928-955E-42F0-BBED-C69085D112D3</title>
    <g id="1" stroke="none" stroke-width="1" fill="none" fill-rule="evenodd">
        <g id="about2.2" transform="translate(-619.000000, -1846.000000)" fill-rule="nonzero">
            <g id="Group-4" transform="translate(120.000000, 1276.000000)">
                <g id="Group" transform="translate(497.000000, 0.000000)">
                    <g id="i-delta_logo_full" transform="translate(2.000000, 570.000000)">
                        <polygon id="Path" fill="#0A8AFF" points="20 16 11 0 11 3.83485933 16.7640741 14.0829033"></polygon>
                        <polygon id="Path" fill="#0A8AFF" points="9 3.83419344 9 0 0 16 3.23504397 14.0835692"></polygon>
                        <polygon id="Path" fill="#0A8AFF" points="4.23539376 15 1 17 19 17 15.7646062 15"></polygon>
                        <path d="M15,14 L10,5 L5,14 L15,14 Z M11.6668895,12.0002315 L8.33311055,12.0002315 L10,9.00023154 L11.6668895,12.0002315 Z" id="Shape" fill="#0A8AFF"></path>
                        <polygon id="Path" fill="#0D194B" points="27 11 31.4184148 11 32 9 27.5815852 9"></polygon>
                        <rect id="Rectangle" fill="#0D194B" x="23" y="5" width="2" height="9"></rect>
                        <path d="M39.0586226,5 L33,5 L33,14 L39.0586226,14 C40.2348876,14 41,13.1664737 41,11.877981 L41,7.12132438 C41,5.83491549 40.2348876,5 39.0586226,5 Z M39.1170863,11.3639731 C39.1170863,11.9432739 38.8819604,12.1974994 38.3545158,12.1974994 L34.8829137,12.1974994 L34.8829137,6.79972216 L38.3532449,6.79972216 C38.8819604,6.79972216 39.1158154,7.05672609 39.1158154,7.63324844 L39.1170863,11.3639731 Z" id="Shape" fill="#0D194B"></path>
                        <polygon id="Path" fill="#0D194B" points="49.4164041 6.79972216 50 5 43 5 43 14 50 14 49.4164041 12.2002778 44.8673809 12.2002778 44.8673809 10.3359574 48.716215 10.3359574 48.716215 8.60013892 44.8673809 8.60013892 44.8673809 6.79972216"></polygon>
                        <polygon id="Path" fill="#0D194B" points="53.8979031 5 52 5 52 14 58.3853127 14 59 12.1356796 53.8979031 12.1356796"></polygon>
                        <polygon id="Path" fill="#0D194B" points="67 5 59 5 59 6.79972216 62.0585432 6.79972216 62.0585432 14 63.9414568 14 63.9414568 6.79972216 66.4115498 6.79972216"></polygon>
                        <path d="M72.2815528,5 L69.7184472,5 L66,14 L68.255322,14 L68.9262506,12.2634869 L73.0737494,12.2634869 L73.744678,14 L76,14 L72.2815528,5 Z M69.5971792,10.5325307 L70.9996705,6.86779347 L72.4028208,10.5325307 L69.5971792,10.5325307 Z" id="Shape" fill="#0D194B"></path>
                    </g>
                </g>
            </g>
        </g>
    </g>
</svg>