<?xml version="1.0" encoding="UTF-8"?>
<svg width="44px" height="44px" viewBox="0 0 44 44" version="1.1" xmlns="http://www.w3.org/2000/svg" xmlns:xlink="http://www.w3.org/1999/xlink">
    <!-- Generator: sketchtool 52.5 (67469) - http://www.bohemiancoding.com/sketch -->
    <title>B750BAF6-5CA5-4707-BADF-90AFA96C61CF</title>
    <desc>Created with sketchtool.</desc>
    <g id="1" stroke="none" stroke-width="1" fill="none" fill-rule="evenodd">
        <g id="story-list" transform="translate(-75.000000, -1166.000000)">
            <g id="MS-logo" transform="translate(75.000000, 1166.000000)">
                <g id="Group-9">
                    <g id="Maven-Stamp-01">
                        <path d="M43.6632875,21.4194131 L41.9087023,19.2923421 L43.0557624,16.7858286 C43.213773,16.4390878 43.1033366,16.0289862 42.7925746,15.8084902 L40.5475829,14.208252 L41.0020205,11.488549 C41.0653482,11.1131222 40.8528219,10.7457003 40.4958226,10.6134187 L37.9130733,9.65187207 L37.6498855,6.90804262 C37.6134227,6.52952133 37.3138386,6.22992663 36.9353307,6.19346258 L34.1920368,5.93026551 L33.2300854,3.34698627 C33.0970866,2.98952005 32.7288227,2.77702425 32.3527928,2.84077057 L29.6331858,3.29522418 L28.0387066,1.0510305 C27.8180655,0.740189034 27.4078236,0.629756623 27.060964,0.787833427 L24.5545391,1.93537265 L22.4279818,0.180725519 C22.1348486,-0.0602418397 21.7122285,-0.0602418397 21.4190953,0.180725519 L19.2920995,1.93537265 L16.7861132,0.787833427 C16.4392688,0.629572369 16.028906,0.740037319 15.8083706,1.0510305 L14.2086276,3.29566284 L11.4890206,2.84120923 C11.1130235,2.77764506 10.7448681,2.99007821 10.611728,3.34742493 L9.64977666,5.93070417 L6.90648275,6.19390124 C6.52838389,6.23145596 6.22981614,6.53150508 6.19412117,6.90979727 L5.93093339,9.65318806 L3.34774537,10.6151733 C2.99110387,10.7478789 2.77876568,11.1149757 2.84154755,11.4903036 L3.29598511,14.2100067 L1.05143203,15.8102448 C0.740670034,16.0307409 0.630233652,16.4408424 0.788244253,16.7875833 L1.93530431,19.2940967 L0.180719137,21.4211677 C-0.0602397124,21.7143112 -0.0602397124,22.1369463 0.180719137,22.4300898 L1.93530431,24.5567221 L0.788244253,27.0636742 C0.629925124,27.4102536 0.740434672,27.8204427 1.05143203,28.040574 L3.29598511,29.6408122 L2.84154755,32.3605153 C2.77780348,32.7365584 2.99029178,33.1048353 3.34774537,33.2378388 L5.93093339,34.1945602 L6.19412117,36.937951 C6.23038642,37.3166432 6.53001941,37.6164707 6.90867598,37.6529697 L9.65196989,37.9161667 L10.6134826,40.4990073 C10.7464814,40.8564735 11.1147453,41.0689693 11.4907752,41.005223 L14.2103822,40.5507694 L15.8101252,42.7958404 C16.0306134,43.1066134 16.4407005,43.2170537 16.7874291,43.0590375 L19.2938541,41.9119369 L21.4208499,43.666584 C21.7140447,43.9073793 22.1365416,43.9073793 22.4297364,43.666584 L24.5562936,41.9119369 L27.0627186,43.0590375 C27.4095629,43.2172985 27.8199257,43.1068336 28.0404611,42.7958404 L29.6402042,40.5507694 L32.3598112,41.005223 C32.735841,41.0689693 33.104105,40.8564735 33.2371038,40.4990073 L34.1986164,37.9161667 L36.942349,37.6529697 C37.3209271,37.6163044 37.6204722,37.3165648 37.6569038,36.937951 L37.9200916,34.1945602 L40.502841,33.2330135 C40.8596016,33.100449 41.0720023,32.7332441 41.0090388,32.3578833 L40.5546012,29.6381802 L42.799593,28.037942 C43.1104383,27.8177047 43.2209151,27.4076369 43.0627807,27.0610423 L41.9157207,24.5540902 L43.6703059,22.4274578 C43.908752,22.1328005 43.9058133,21.7107215 43.6632875,21.4194131 Z" id="Path" fill="#8A2471"></path>
                        <path d="M19.0139758,18.5843613 C19.38012,18.5922817 19.762107,18.620399 20.0662004,18.747917 C20.9494353,19.1170064 21.335383,20.087648 20.9093883,20.9283955 C20.8541831,21.0390315 20.7841295,21.1431674 20.7007917,21.238478 L23.8108173,21.2178851 C23.3399347,20.6725675 23.3161706,19.8583532 23.8182986,19.2171991 C23.9932832,19.0127521 24.2208866,18.8496598 24.481495,18.7419767 C24.7820677,18.620003 25.1592139,18.5926777 25.5183169,18.5835693 L25.5183169,20.93988 L27.4044878,20.93988 L27.4044878,17.1278049 C24.5052592,18.4647637 20.0613595,18.5253546 17.1278049,17.1278049 L17.1278049,20.9414641 L19.0139758,20.9319596 L19.0139758,18.5843613 Z" id="Path" fill="#FFFFFF"></path>
                        <path d="M25.9145698,26.0342634 L24.664039,24.7418399 L24.7797131,24.6067528 C25.1789897,24.14227 25.4232898,23.3762603 25.4849231,22.802237 L25.5054676,22.6087024 L27.4044878,22.6087024 L27.3870697,22.835912 C27.3080183,23.8581613 26.8618468,25.0468503 26.1017028,25.8384065 L25.9145698,26.0342634 Z" id="Path" fill="#FFFFFF"></path>
                        <path d="M16.4426927,22.6087024 L18.3975727,22.6087024 L18.4187215,22.8344581 C18.5892907,24.6405038 20.0848751,26.1192036 21.964815,26.1192036 C22.4001842,26.1194287 22.831613,26.0382145 23.2360387,25.8799026 L23.412125,25.8108213 L24.664039,27.382984 L24.3881858,27.5184374 C23.6370673,27.8942737 22.8059688,28.090006 21.962976,28.0895994 C18.9989328,28.0895994 16.6537204,25.7313553 16.4587841,22.8723851 L16.4426927,22.6087024 Z" id="Path" fill="#FFFFFF"></path>
                        <path d="M21.9016684,39.0513628 C13.1070484,39.0406623 5.75010894,32.3699494 4.88063786,23.6179877 C4.01116679,14.8660259 9.91183122,6.87809861 18.5324274,5.13710237 C27.1530236,3.39610612 35.6909754,8.46804293 38.2858506,16.8715459 C40.8807258,25.2750489 36.6889243,34.2781196 28.5876899,37.7010689 C26.4725955,38.5965607 24.1984994,39.055832 21.9016684,39.0513628 Z M21.9016684,5.41254638 C12.8251772,5.41254638 5.44103083,12.7974816 5.44103083,21.8739748 C5.44103083,30.9504679 12.8251772,38.3354031 21.9016684,38.3354031 C30.9781596,38.3354031 38.362306,30.9509021 38.362306,21.8739748 C38.362306,12.7970475 30.9781596,5.41167802 21.9016684,5.41167802 L21.9016684,5.41254638 Z" id="Shape" fill="#F26931" fill-rule="nonzero"></path>
                        <path d="M21.9233715,13.0171317 C17.0124501,13.0171317 13.0171317,17.012397 13.0171317,21.9227154 C13.0171317,26.8330338 17.0124501,30.8300488 21.9233715,30.8300488 C26.8342929,30.8300488 30.8300488,26.8325964 30.8300488,21.9227154 C30.8300488,17.0128344 26.8342929,13.0171317 21.9233715,13.0171317 Z M21.9233715,30.3121602 C17.2967989,30.3121602 13.5324591,26.5504696 13.5324591,21.9227154 C13.5324591,17.2949612 17.2946116,13.5328332 21.9233715,13.5328332 C26.5521314,13.5328332 30.3142839,17.2967108 30.3142839,21.9227154 C30.3142839,26.54872 26.5499441,30.3121602 21.9233715,30.3121602 Z" id="Shape" fill="#F26931" fill-rule="nonzero"></path>
                        <path d="M8.36827003,28.2982356 C8.32405976,28.2046019 8.28963501,28.1058138 8.26564765,28.0037419 C8.24250924,27.9041373 8.22802006,27.8023639 8.22237315,27.6997776 C8.21744504,27.590683 8.23028378,27.4814987 8.26028986,27.3773228 C8.29417529,27.2867669 8.33484054,27.1994296 8.38187059,27.1162021 C8.42971027,27.0317615 8.48581754,26.9532776 8.54919864,26.8821406 C8.62278073,26.8017103 8.70596157,26.732534 8.79648148,26.6764911 C8.96655713,26.6295886 9.08868737,26.6324448 9.16287222,26.6850598 C9.21902791,26.7201786 9.26899538,26.7659976 9.31041765,26.8203555 L9.38501464,26.9367098 C9.43996639,27.1080844 9.45026984,27.2304518 9.415925,27.3038122 C9.36739743,27.3964903 9.30530131,27.4798271 9.23211142,27.5505013 C9.16781788,27.6113844 9.13690753,27.655581 9.13855608,27.685797 L9.14391387,27.7705823 L10.8035939,30.3759265 C10.826243,30.3982392 10.8509693,30.4178895 10.8773666,30.4345547 C10.9086213,30.4558823 10.9417595,30.4737111 10.9762797,30.487771 C11.0103697,30.5016333 11.0455484,30.5120495 11.0813749,30.518889 C11.1078781,30.5211488 11.134524,30.5174658 11.1596812,30.5080654 C11.1936368,30.4923415 11.2257396,30.472203 11.2552972,30.4480843 C11.2839082,30.4240052 11.3161207,30.4055416 11.3505011,30.393515 C11.3672817,30.3651942 11.3883234,30.3401869 11.4127339,30.3195533 C11.4385338,30.2983044 11.4581472,30.2693227 11.4691969,30.236121 C11.4749668,30.2113168 11.4832095,30.173885 11.4947494,30.1238256 C11.496153,30.0975405 11.496153,30.0711881 11.4947494,30.0449031 C11.4929827,30.0159839 11.4871439,29.987537 11.4774396,29.9605687 C11.4679604,29.9321566 11.4588934,29.9037446 11.4510628,29.8739795 L9.89070805,27.4242253 C9.83607798,27.3214165 9.79119635,27.2127654 9.75676318,27.0999666 C9.72156612,26.9862725 9.69833622,26.8685559 9.68752398,26.7490998 C9.67690169,26.6287239 9.68147819,26.5073208 9.70112454,26.3883112 C9.73189922,26.2621436 9.77501051,26.1399727 9.82971162,26.0239148 C9.88359823,25.9075332 9.95895803,25.8046462 10.0510298,25.7217544 C10.1433526,25.6398175 10.2410136,25.5653576 10.3432356,25.4989675 C10.4243764,25.4479289 10.5112429,25.408664 10.6016462,25.3821622 C10.6875316,25.3574414 10.7762433,25.3465035 10.8650024,25.3496912 C10.9593012,25.3543287 11.0529252,25.3694391 11.1444321,25.3947898 C11.233866,25.4331236 11.31753,25.4732613 11.395012,25.514301 C11.470111,25.5540625 11.539527,25.6055627 11.601081,25.6671852 C11.6675179,25.7335676 11.7371299,25.7960419 11.8096229,25.8543442 L13.5818166,28.6391807 C13.6155925,28.7269317 13.6431496,28.8173957 13.6642442,28.9097721 C13.6860387,29.0001249 13.698617,29.092842 13.7017488,29.1862263 C13.7039672,29.2822981 13.698728,29.3784025 13.6860875,29.4735042 C13.6639009,29.5790652 13.6272159,29.6803349 13.5772831,29.7738607 C13.5275197,29.8633204 13.4690691,29.9466349 13.4029487,30.0223538 C13.3353801,30.100466 13.2576022,30.1671855 13.1721513,30.2203365 C13.0867014,30.2735528 12.9803698,30.2807686 12.8531565,30.2419838 C12.8067051,30.231842 12.7628273,30.2107591 12.7245694,30.1801988 C12.6842907,30.1497817 12.6491484,30.1119373 12.6207106,30.0683543 L12.538283,29.9398234 C12.5056106,29.8344301 12.500895,29.7210642 12.5246824,29.6128588 C12.5411017,29.5365439 12.5807851,29.4686243 12.6371961,29.4202879 C12.6813073,29.3883014 12.7207654,29.3492289 12.7542433,29.3043846 C12.7711714,29.279004 12.7894757,29.2547575 12.8090577,29.2317759 C12.818949,29.2214032 12.8061727,29.1758537 12.7715531,29.0964802 L11.150202,26.5511171 L11.0595316,26.4609199 C11.0306326,26.4314356 10.9974927,26.4073614 10.9614428,26.3896642 C10.9252667,26.3709261 10.8876067,26.3558309 10.8489291,26.3445656 C10.832037,26.3485478 10.8156894,26.3549149 10.8002968,26.363507 L10.7327061,26.3977819 C10.7132424,26.4069675 10.6946137,26.4181413 10.6770675,26.4311549 L10.5946399,26.5826861 C10.5938008,26.6099479 10.5949032,26.6372399 10.597937,26.6643145 C10.6013,26.6972426 10.6070888,26.7298195 10.6152468,26.7617274 C10.6239017,26.7969043 10.6325566,26.8289242 10.6403872,26.8582383 L12.1933234,29.2962669 C12.2560673,29.4113552 12.3058843,29.5343116 12.3416931,29.6624672 C12.3762584,29.7883965 12.3951126,29.9188596 12.3977439,30.0503149 C12.3995547,30.1909829 12.385715,30.3313694 12.3565301,30.4683786 C12.3213516,30.5972628 12.270034,30.7201963 12.204039,30.833677 C12.1370146,30.9446639 12.0534231,31.0425375 11.9567562,31.1232098 C11.856744,31.2079951 11.7557702,31.2893229 11.6538347,31.3671931 C11.5512123,31.4122916 11.4510628,31.4461155 11.3537982,31.4763316 C11.2562249,31.506124 11.1549714,31.5189083 11.0537617,31.5142144 C10.9445673,31.5085798 10.8362412,31.4901341 10.7306454,31.4591941 C10.6323527,31.4372279 10.5393034,31.3931519 10.4573979,31.3297612 C10.3808206,31.2704534 10.3074726,31.2063043 10.2377283,31.1376413 C10.1717862,31.0726994 10.1041956,30.9982868 10.0349564,30.9153054 L8.36827003,28.2982356 Z" id="Path" fill="#FFFFFF"></path>
                        <path d="M14.9704871,34.175613 C14.9423885,34.1456071 14.9120355,34.1177374 14.8796867,34.0922413 C14.8452747,34.062284 14.8208378,34.0227613 14.8095804,33.9788558 C14.7939543,33.9271653 14.7812845,33.8813109 14.7724157,33.8408756 L14.7724157,33.6812188 L16.1542698,31.1350474 L14.5308446,30.2767359 L14.4003455,30.0324568 C14.3855254,29.9828929 14.3833492,29.9304813 14.3940106,29.8798866 C14.4024856,29.8337716 14.4177078,29.7891176 14.4391996,29.7473256 L14.500437,29.634357 C14.6533194,29.4759508 14.8174639,29.425372 14.9928704,29.4826205 L19.0092008,31.6060975 C19.138996,31.7564444 19.1961509,31.8745543 19.1806656,31.9604272 C19.1714764,32.0243081 19.1532809,32.0866065 19.1266077,32.1455123 L19.0603024,32.267235 C18.932887,32.3948491 18.7485039,32.4498089 18.5708253,32.4131354 L16.9659825,31.5644116 L15.5972204,34.0864053 C15.4342022,34.2767706 15.2252911,34.3065065 14.9704871,34.175613 Z" id="Path" fill="#FFFFFF"></path>
                        <path d="M19.5207361,36.23326 L19.2838965,36.0783495 C19.2461353,36.0452365 19.2189591,36.0030146 19.2053861,35.9563728 C19.1911848,35.9125789 19.1836958,35.8671335 19.1831415,35.8213853 C19.1831415,35.7807264 19.1831415,35.7339687 19.1861946,35.6770462 L20.0698727,34.3975106 L20.2879571,34.2828525 L22.5560351,34.3202587 L21.5061767,32.8386484 C21.4404606,32.5968635 21.4907654,32.4180998 21.6570911,32.3023575 C21.6937081,32.2704262 21.7375218,32.2465321 21.7853247,32.2324242 C21.8305616,32.2167791 21.8783941,32.2086596 21.9266434,32.2084354 C21.9704042,32.2088445 22.0141383,32.2062625 22.0574941,32.2007102 C22.101111,32.1946114 22.2101532,32.252347 22.3820037,32.3735106 L24.664039,35.7603969 C24.6262377,36.0138374 24.5775322,36.1640043 24.5179225,36.2108976 C24.4697065,36.2524778 24.4110686,36.2821151 24.3473805,36.2970944 C24.2962776,36.3067194 24.2442377,36.3113525 24.1921043,36.3109185 L24.0263602,36.3080723 L23.7759993,36.1527553 L23.1806288,35.2236995 L20.6447432,35.1830406 L19.9791496,36.1181953 C19.9268093,36.1523487 19.8805754,36.18081 19.8400117,36.2043921 C19.7963589,36.2286848 19.7459844,36.2404243 19.6952037,36.238139 L19.5207361,36.23326 Z" id="Path" fill="#FFFFFF"></path>
                        <path d="M27.6707307,35.598972 C27.6282814,35.5928985 27.5849184,35.5977744 27.5450651,35.6131021 C27.5008568,35.6289452 27.4524027,35.6300337 27.407475,35.6161931 C27.3588598,35.6029461 27.3120792,35.5914654 27.2698849,35.5813094 L27.0992732,35.4651776 L25.3615102,32.2201117 C25.3419418,32.0690962 25.3456109,31.9669474 25.3725174,31.9136651 C25.4120466,31.8403592 25.4580812,31.7704791 25.5101075,31.7048046 C25.67607,31.6110418 25.8731641,31.5824198 26.0604679,31.6248812 L28.7077014,32.4289722 L29.5791054,29.7424868 C29.6621107,29.6255953 29.7765736,29.53264 29.9102389,29.4735734 C30.1594299,29.4302999 30.3379912,29.4891754 30.445923,29.6501996 L32.188731,32.908071 C32.2364289,33.1730104 32.1362939,33.3698014 31.8883259,33.4984442 C31.6571745,33.5437783 31.4645484,33.5003577 31.3104475,33.3681824 L30.1762464,31.2354203 L29.4951754,33.3222595 C29.3996527,33.4766728 29.2229247,33.5671932 29.0365418,33.5571725 L26.8479419,32.894824 L27.9885638,35.0244951 C27.9885638,35.0779245 27.9885638,35.1251721 27.9853534,35.1666792 C27.9814192,35.2130228 27.9709264,35.2586315 27.9541663,35.3022399 C27.9368017,35.3498736 27.9133866,35.3952576 27.884454,35.437359 L27.6707307,35.598972 Z" id="Path" fill="#FFFFFF"></path>
                        <path d="M33.929606,31.349267 C33.8901804,31.363369 33.8552969,31.3870739 33.8284142,31.4180313 C33.7985624,31.4510254 33.758046,31.4735604 33.7132804,31.4820681 C33.6651581,31.4928126 33.6192845,31.5039868 33.5761093,31.515161 L33.3728263,31.4932423 L31.843706,30.5086228 C31.6518164,30.3011837 31.6266309,30.100621 31.7681495,29.9069347 L33.9057697,26.872278 C33.9465462,26.7648337 33.9592889,26.6866142 33.9439977,26.6376196 C33.9321528,26.5963952 33.914448,26.5569177 33.891378,26.5202905 C33.8700225,26.4894888 33.842325,26.4631671 33.8099748,26.4429306 C33.7769149,26.4212692 33.7467135,26.3958717 33.7200265,26.3672898 C33.6863936,26.3590388 33.6540368,26.3466128 33.6237819,26.330329 C33.5894988,26.3124971 33.552452,26.3000192 33.514045,26.2933681 C33.4892684,26.2872353 33.4632652,26.2872353 33.4384885,26.2933681 C33.401113,26.3053892 33.3646051,26.319746 33.3292014,26.3363458 C33.2974107,26.3523324 33.2672911,26.371185 33.2392531,26.3926466 C33.2119298,26.4134784 33.1859474,26.4358676 33.1614479,26.4596919 L30.9914463,29.5403348 L30.7148555,29.6469195 C30.6595568,29.6608465 30.6012771,29.6596552 30.5466522,29.6434813 C30.4979877,29.6302562 30.4516194,29.6102732 30.4090314,29.5841721 L30.2943474,29.5102504 C30.1411355,29.3383395 30.1057559,29.164996 30.1882084,28.99022 L32.422523,25.8214728 L32.6923678,25.6065842 C32.7807808,25.5373377 32.8794469,25.4809976 32.9851493,25.4394008 C33.0982722,25.3948636 33.2174469,25.3659222 33.3390957,25.3534454 C33.4778076,25.3437301 33.6172452,25.3505152 33.7542069,25.3736449 C33.8888407,25.396391 34.0179589,25.44257 34.1351377,25.5098843 C34.2550687,25.5777891 34.3706522,25.647986 34.4818882,25.7204751 C34.5538468,25.8004137 34.6219077,25.8817848 34.6860708,25.9645886 C34.7478244,26.0441325 34.7988938,26.1307641 34.8380833,26.2224549 C34.8780797,26.320189 34.90996,26.4207813 34.9334284,26.5232989 C34.9450451,26.6234269 34.9427768,26.7245824 34.9266823,26.8241429 C34.9109414,26.9169748 34.890703,27.0102365 34.8659673,27.1030683 C34.8382972,27.2031919 34.7993939,27.3001674 34.749934,27.3923084 L32.8799099,30.0466123 L33.9224101,30.7170647 C33.9489448,30.7600425 33.9714319,30.8030202 33.9894215,30.8395512 C34.0084171,30.8807042 34.0217214,30.9240467 34.0289988,30.9684844 C34.037344,31.0169075 34.0394585,31.0661245 34.0352952,31.1150384 L33.929606,31.349267 Z" id="Path-2" fill="#FFFFFF"></path>
                        <path d="M10.9227689,17.663258 C10.8852163,17.6753383 10.8513122,17.6978189 10.8244877,17.7284249 C10.7942671,17.7605966 10.755022,17.781278 10.7127662,17.7872998 C10.6671256,17.7953894 10.623865,17.8039285 10.5829845,17.8129171 L10.394822,17.7760641 L7.64966581,15.4997178 C7.5732248,15.3684852 7.53500429,15.2750045 7.53626431,15.2125342 C7.53980009,15.1283082 7.55005756,15.0445598 7.56692472,14.9622035 C7.66701452,14.8077185 7.81871492,14.7002514 7.9907103,14.6619865 L10.5107435,14.3096359 L10.1570989,11.4710569 C10.1792422,11.3288183 10.2373414,11.1957765 10.3251011,11.0863476 C10.5143836,10.9434299 10.6860258,10.9235054 10.8400279,11.0265739 L13.5961042,13.3123581 C13.7417061,13.5373711 13.737506,13.7604365 13.583504,13.9815544 C13.4093417,14.1187794 13.2318194,14.1583289 13.050937,14.1002031 L11.2516333,12.5986685 L11.5229569,14.8071513 C11.5052418,14.9882293 11.3953006,15.1439327 11.2373531,15.2116353 L9.15454564,15.5046615 L10.9551094,17.0030502 C10.9769497,17.0518879 10.9950099,17.0959317 11.0092901,17.1351816 C11.0250267,17.1793593 11.0350593,17.2256272 11.0391105,17.2727062 C11.0437785,17.3237617 11.0425088,17.3752397 11.0353304,17.4259607 L10.9227689,17.663258 Z" id="Path" fill="#FFFFFF"></path>
                        <path d="M14.2471972,13.7022439 L13.9745127,13.6606199 C13.9263957,13.6468591 13.8831577,13.6197266 13.8498094,13.5823668 C13.8166103,13.5486824 13.7885926,13.5102463 13.7666739,13.468317 C13.7492155,13.4321041 13.7276002,13.3879826 13.7022439,13.3351201 L13.8631111,11.7858745 L13.9977907,11.5860792 L15.9431618,10.6428791 L14.366081,9.74171931 C14.19981,9.54941638 14.160182,9.36460577 14.2471972,9.18728749 C14.2636081,9.1423192 14.2897236,9.10152971 14.3236819,9.06782658 C14.3550726,9.03399014 14.3920556,9.0058281 14.4330051,8.98457855 C14.470351,8.96633043 14.5062093,8.94517601 14.5402499,8.92131006 C14.5757211,8.89661315 14.6941892,8.902718 14.8956543,8.93962462 L18.4035575,11.0537081 C18.4883557,11.3012322 18.5160675,11.4594035 18.486693,11.5282218 C18.4648393,11.5869607 18.4285219,11.6392198 18.3811109,11.6801495 C18.3424931,11.7110271 18.3006875,11.7376793 18.2564076,11.7596513 L18.1142459,11.8287472 L17.8295067,11.7950317 L16.8942321,11.2027221 L14.720654,12.2558095 L14.5863901,13.3967237 C14.5572927,13.4504186 14.5315207,13.4966213 14.5078271,13.5353316 C14.4816807,13.5762669 14.4443005,13.608784 14.4001666,13.6289856 L14.2471972,13.7022439 Z" id="Path" fill="#FFFFFF"></path>
                        <path d="M21.2362808,10.9617718 C21.195593,10.9496529 21.1540001,10.94036 21.1118426,10.9339692 C21.0647475,10.924049 21.0222469,10.9004257 20.9904715,10.8665071 C20.9498684,10.8272564 20.9006482,10.7751947 20.8428107,10.710322 L18.5464002,7.60093134 C18.4473754,7.3283571 18.5003931,7.12283612 18.7054532,6.9843684 C18.7996007,6.94753994 18.8997459,6.92583674 19.0016512,6.92017717 C19.1056418,6.91445311 19.2175193,6.97005826 19.3372838,7.08699261 L21.2779062,9.6734496 L23.0305569,7.12460785 C23.232988,6.82668421 23.4958856,6.77216936 23.8192497,6.96106331 C24.0067833,7.16522142 24.0291296,7.36515462 23.8862885,7.56086293 L21.7178215,10.7090954 C21.5866648,10.8791818 21.4261512,10.9634072 21.2362808,10.9617718 Z" id="Path" fill="#FFFFFF"></path>
                        <path d="M24.8980037,11.6293548 C24.876619,11.5963499 24.8473806,11.5689274 24.8128,11.5494429 C24.7736384,11.5246289 24.7437418,11.4880346 24.7275964,11.4451511 C24.7087134,11.4000032 24.690291,11.3548552 24.6718686,11.3142221 L24.664039,11.1087989 L25.5851598,9.205361 C25.7653924,9.00400111 25.9628193,8.95328491 26.1774404,9.05321239 L30.1285879,10.8920887 C30.1541574,10.9225829 30.1844649,10.9489409 30.2183972,10.9701946 C30.2592325,10.9978951 30.2911813,11.0364173 30.3105093,11.0812586 C30.329001,11.1220786 30.3443948,11.1641805 30.3565653,11.2072214 C30.374626,11.2529202 30.3790975,11.3027025 30.369461,11.3507919 C30.3594052,11.3940148 30.3469516,11.4366677 30.3321556,11.4785606 C30.314608,11.5266778 30.2944686,11.5738484 30.2718222,11.6198737 C30.1087839,11.7863192 29.9181119,11.8456135 29.6998062,11.7977567 L26.2253387,10.1846202 L25.8453764,10.9688402 L29.7693509,12.795075 C29.8826487,12.9016242 29.9434427,12.9824391 29.953575,13.0375196 C29.9621814,13.0903819 29.9666465,13.1438127 29.9669313,13.1973433 C29.9667536,13.2474198 29.9604135,13.2972925 29.9480483,13.3458801 C29.9327721,13.4026206 29.9116303,13.4576852 29.8849515,13.5102187 C29.7388036,13.6758281 29.5070207,13.7417817 29.2931314,13.6786206 L24.8980037,11.6293548 Z M26.368573,8.43965165 L26.2138247,8.18185682 C26.1905049,8.1291806 26.1828416,8.07111751 26.1917178,8.0143579 C26.1984869,7.96388562 26.2126008,7.91462496 26.2336288,7.86807852 C26.2529723,7.8287998 26.273237,7.7868122 26.2944228,7.74301868 C26.4522415,7.56242685 26.6306319,7.50012267 26.8295939,7.55610614 L31.3177549,9.64555358 C31.4313597,9.77377377 31.4936889,9.8660261 31.5047424,9.92231055 C31.5157022,9.97641008 31.5180327,10.031849 31.5116508,10.0866491 C31.506678,10.1349223 31.4936064,10.1820589 31.4729637,10.2261563 C31.4540807,10.2658865 31.4324344,10.30968 31.4094064,10.3579883 C31.2772486,10.5024417 31.079443,10.5714387 30.883907,10.541289 L26.368573,8.43965165 Z" id="Shape" fill="#FFFFFF" fill-rule="nonzero"></path>
                        <path d="M30.2148626,14.5611324 C30.2034294,14.5021908 30.18418,14.4453074 30.1577004,14.392214 C30.1249161,14.3183404 30.1551785,14.184557 30.2497483,13.989963 L32.9901724,11.7228528 C33.1339186,11.652883 33.2340926,11.6312614 33.2906944,11.6579881 C33.3408963,11.6815169 33.3893696,11.7090725 33.4357015,11.7404203 C33.4856818,11.7779899 33.5307711,11.8225253 33.5697806,11.8728523 C33.6188168,11.9329122 33.6503401,12.0401191 33.6643504,12.1944729 L33.7358032,16.9967106 L35.6877249,15.3750939 C35.7290751,15.381819 35.7713446,15.3770097 35.8104555,15.36113 C35.8544331,15.3455519 35.9020731,15.3466652 35.9453752,15.3642831 C35.9926381,15.3796464 36.038962,15.3981507 36.0840776,15.4196884 C36.1235868,15.4386072 36.1870537,15.5133818 36.2748986,15.6449129 C36.3401868,15.8551225 36.3167895,16.0368036 36.2047067,16.1899563 L33.4726888,18.4480575 C33.0983323,18.5867958 32.8841141,18.4366461 32.8300342,17.9976084 L32.7459721,13.1678934 L30.812544,14.7678885 C30.5824941,14.8633837 30.383267,14.794465 30.2148626,14.5611324 Z" id="Path" fill="#FFFFFF"></path>
                        <polygon id="Path" fill="#FFFFFF" points="8.90667364 19.8682537 9.39152227 21.1767297 10.9617951 21.1767297 9.69137986 21.9853386 10.1766587 23.2938146 8.90667364 22.4852058 7.63625838 23.2938146 8.12153722 21.9853386 6.85112195 21.1767297 8.4213948 21.1767297"></polygon>
                        <polygon id="Path" fill="#FFFFFF" points="34.9409371 19.8682537 35.4257857 21.1767297 36.9960585 21.1767297 35.7256433 21.9853386 36.2109221 23.2938146 34.9409371 22.4852058 33.6705218 23.2938146 34.1558006 21.9853386 32.8853854 21.1767297 34.4556582 21.1767297"></polygon>
                    </g>
                </g>
            </g>
        </g>
    </g>
</svg>