<svg xmlns="http://www.w3.org/2000/svg" viewBox="0 0 635.26 266.76"><path d="M97.59,119.49c4.27-.34,10.33-.49,12.25-.15l.16,0,1.38.21h.1c14.7,1.94,25.41,8,33.7,19,9.21,12.21,13.67,26.83,12,39.08-.69,5-2.81,12-8.88,16.58C134.79,204.36,110.68,196,95.58,176l-.22-.29s-.54-.62-.76-.91a228.75,228.75,0,0,1-26.8-46.4A77,77,0,0,1,97.59,119.49Zm70,115.08A62.58,62.58,0,0,1,140,242.41H140a2.55,2.55,0,0,0-2.44,2.52,2.51,2.51,0,0,0,1.22,2.16l0,0c5.29,3.33,11.35,6.58,14.86,8.41l.48.31.8.36c30.46,14.19,57.73,14.05,76.84-.36,12-9.07,19.69-23.23,22.16-40.91,5-36-11.69-84.71-43.67-127.1-23.06-30.54-52.34-57-80.36-72.58C97.22-2.83,68.79-4.91,49.78,9.42c-11.23,8.47-18.46,22.3-21,40.05a109.39,109.39,0,0,0-1,14.05c-.16,17,3.24,36,9.61,55.29C17.25,135.49,4,157.84.77,180.8A78.83,78.83,0,0,0,0,191.35a73,73,0,0,0,14.93,45.12C27.66,253.33,47,264,69.31,266.59h0c7.35.85,13.92-4,14.73-10.86s-4.53-13.09-11.86-13.92h-.08c-15.45-1.78-28.72-9-37.28-20.37A48.62,48.62,0,0,1,25,191.39a57.88,57.88,0,0,1,.53-7.14c2-14.49,9.79-28.81,21.72-40.63a252.76,252.76,0,0,0,27.6,46.43l0,0h0l1.64,2h0c10.93,14.07,25.37,24.27,40.77,28.81,17.11,5,33.45,2.64,46-6.81,10.09-7.59,16.69-19.35,18.58-33,2.66-19-3.44-39.94-16.73-57.6-12.27-16.24-29.21-25.91-50.4-28.66l.24,0-1.08-.18.32,0c-6-1-15.78-.37-18.62-.13A101.28,101.28,0,0,0,59.2,104.77C55,90.3,52.67,76.33,52.77,63.91a89.26,89.26,0,0,1,.76-11c1.1-7.71,3.93-18,11.27-23.61,10.52-7.91,29.81-5.07,53,7.77C142.84,51,169.28,75,190.3,102.87c27.71,36.76,43,79.38,38.89,108.61-1.56,11.15-5.77,19.38-12.5,24.44-10.81,8.18-28.62,7.65-49.07-1.35" fill="#e64b38"/><path d="M342.79,185.4c-35.34,0-63.42-23-63.42-64.63,0-41.4,28.08-64.22,63.42-64.22,35.14,0,63.42,22.82,63.42,64.42C406.21,162.37,377.93,185.4,342.79,185.4Zm0-121.79c-30.7,0-55.14,20.2-55.14,57.16,0,37.36,24.44,57.36,55.14,57.36,30.5,0,55.14-20,55.14-57.16S373.29,63.61,342.79,63.61Z" fill="#4d5858"/><path d="M422.37,120.77c0-41,27.46-64.22,64-64.22,17.37,0,33.12,6.86,41.4,12.72l-.6,7.88c-7.88-5.26-22.42-13.54-40.8-13.54-31.51,0-55.74,20.4-55.74,57,0,36.76,23.83,57.76,55.74,57.76,17.17,0,31.71-6.66,41.81-13.73l3.63,6.86a78.16,78.16,0,0,1-45.44,13.94C449.83,185.4,422.37,161.77,422.37,120.77Z" fill="#4d5858"/><path d="M550,58.36h65.24v7.07H558.09v44.84h44.43v7.07H558.09v59h74.12l-1.82,7.27H550Z" fill="#4d5858"/><path d="M303.78,226.91,309,212.8h6.33l-10.8,26.08h-1l-5.71-15.15-5.67,15.15H291l-10.8-26.08h6.33l5.18,14.11c1.69-4.71,3.89-10.06,5.46-14.48h1.16Z" fill="#231f20"/><path d="M328.74,230.43c0-3.27-.25-5.3-2.82-5.3s-3.31,2.49-3.31,6.09v7.24h-5.3v-25l5.3-1.07V224a6.29,6.29,0,0,1,5.26-3.15c5.13,0,6.25,3.19,6.25,10.22v7.41h-5.38Z" fill="#231f20"/><path d="M347.12,234.57a7,7,0,0,0,4.51-1.53l2.28,3.64a11.72,11.72,0,0,1-7,2c-5.92,0-9.61-3.47-9.61-8.94s3.73-9,8.7-9a7.83,7.83,0,0,1,8.19,8.24,19.12,19.12,0,0,1-.12,2H342.53C342.73,233.45,344.72,234.57,347.12,234.57Zm-4.51-7.2h7.08a3.3,3.3,0,0,0-3.48-3A3.66,3.66,0,0,0,342.61,227.37Z" fill="#231f20"/><path d="M363,232.92v5.54h-5.26V221.12H363V224c.78-2.36,3.47-3.4,5.75-3.15-.12.5-.62,4.39-.7,4.84C364.18,225.55,363,228.24,363,232.92Z" fill="#231f20"/><path d="M379.25,234.57a7,7,0,0,0,4.51-1.53l2.28,3.64a11.76,11.76,0,0,1-7,2c-5.92,0-9.6-3.47-9.6-8.94s3.72-9,8.69-9a7.83,7.83,0,0,1,8.2,8.24,17.67,17.67,0,0,1-.13,2H374.65C374.86,233.45,376.85,234.57,379.25,234.57Zm-4.51-7.2h7.07a3.3,3.3,0,0,0-3.47-3A3.66,3.66,0,0,0,374.74,227.37Z" fill="#231f20"/><path d="M405.54,224.18v14.28h-6.13v-26h1L416.26,227V212.8h6.13v26h-1Z" fill="#231f20"/><path d="M436.34,234.57a7,7,0,0,0,4.51-1.53l2.28,3.64a11.76,11.76,0,0,1-7,2c-5.92,0-9.6-3.47-9.6-8.94s3.72-9,8.69-9a7.83,7.83,0,0,1,8.2,8.24,17.67,17.67,0,0,1-.13,2H431.74C432,233.45,433.94,234.57,436.34,234.57Zm-4.51-7.2h7.08a3.31,3.31,0,0,0-3.48-3A3.66,3.66,0,0,0,431.83,227.37Z" fill="#231f20"/><path d="M465,238.46h-6.34l-4-5.83-4,5.83h-6.37l7.37-9.43-6.13-7.91h6.33l2.82,4.18,2.77-4.18h6.42l-6.42,8C459.52,231.76,462.83,235.77,465,238.46Z" fill="#231f20"/><path d="M474.63,238.67c-4.72,0-6.29-2.11-6.29-6.87v-6.62h-3.23l1-4.06h2.19v-3.69l5.34-1.11v4.8h4.06v4.06h-4.06v6.7c0,1.82.33,2.49,1.49,2.65a18.5,18.5,0,0,0,3-.08l-1,4.1C477,238.55,476.25,238.67,474.63,238.67Z" fill="#231f20"/><path d="M506.72,226.75h-10v11.71h-6.08V212.8h6.08V222h10V212.8h6.13v25.66h-6.13Z" fill="#231f20"/><path d="M526.22,220.83a12.74,12.74,0,0,1,8.53,3.06v14.57h-5.26V235.4a5.58,5.58,0,0,1-5,3.35c-4.6,0-7.41-3.47-7.41-8.65S520.3,220.83,526.22,220.83Zm-.42,13.58c2.24,0,3.69-2.16,3.69-6.34V225.8a5.62,5.62,0,0,0-3.06-.79c-2.69,0-4,2.32-4,5C522.41,232.46,523.36,234.41,525.8,234.41Z" fill="#231f20"/><path d="M556.73,229.48c0,5.05-2.94,9.19-8.16,9.19a11.87,11.87,0,0,1-4.22-.87v6L539.09,245s0-6.37,0-23.84h5.22v3a5.52,5.52,0,0,1,5.05-3.31C554,220.83,556.73,224.31,556.73,229.48Zm-8.74-4.3c-2.23,0-3.68,2.15-3.68,6.29v2.15a6.46,6.46,0,0,0,3.19.91c2.61,0,3.89-2.28,3.89-5C551.39,227.12,550.44,225.18,548,225.18Z" fill="#231f20"/><path d="M578,229.48c0,5.05-2.94,9.19-8.16,9.19a11.87,11.87,0,0,1-4.22-.87v6L560.33,245s0-6.37,0-23.84h5.22v3a5.51,5.51,0,0,1,5.05-3.31C575.23,220.83,578,224.31,578,229.48Zm-8.74-4.3c-2.23,0-3.68,2.15-3.68,6.29v2.15a6.43,6.43,0,0,0,3.19.91c2.6,0,3.89-2.28,3.89-5C572.63,227.12,571.67,225.18,569.23,225.18Z" fill="#231f20"/><path d="M590.55,234.57a7,7,0,0,0,4.51-1.53l2.28,3.64a11.72,11.72,0,0,1-7,2c-5.92,0-9.61-3.47-9.61-8.94s3.73-9,8.7-9a7.83,7.83,0,0,1,8.19,8.24,19.12,19.12,0,0,1-.12,2H586C586.16,233.45,588.15,234.57,590.55,234.57Zm-4.51-7.2h7.08a3.3,3.3,0,0,0-3.48-3A3.66,3.66,0,0,0,586,227.37Z" fill="#231f20"/><path d="M612.58,229c0-2.53-.79-3.9-2.82-3.9s-3.31,2-3.31,5.22v8.11h-5.3V221.12h5.3V224a6.1,6.1,0,0,1,5.17-3.15c4.23,0,6.34,2.48,6.34,7.82v9.81h-5.38Z" fill="#231f20"/><path d="M628.35,224.76c-.91,0-1.78.33-1.78,1.16,0,2.4,8.69,1.41,8.69,7.25,0,3.39-3,5.58-7.08,5.58a15.15,15.15,0,0,1-7.57-2.36l2.52-3.51a10.51,10.51,0,0,0,5,1.82c1.24,0,1.87-.62,1.87-1.41,0-2.61-8.57-1.45-8.57-7.37,0-3.23,2.52-5.09,6.66-5.09a12.31,12.31,0,0,1,6.09,1.53l-.79,3.85A10.92,10.92,0,0,0,628.35,224.76Z" fill="#231f20"/></svg>