<?xml version="1.0" encoding="UTF-8"?>
<svg width="110px" height="34px" viewBox="0 0 110 34" version="1.1" xmlns="http://www.w3.org/2000/svg" xmlns:xlink="http://www.w3.org/1999/xlink">
    <!-- Generator: sketchtool 52.5 (67469) - http://www.bohemiancoding.com/sketch -->
    <title>315D209D-7BDC-4DF3-B5F1-43FDB4F27456</title>
    <desc>Created with sketchtool.</desc>
    <defs>
        <linearGradient x1="1.82542453%" y1="49.4441339%" x2="100.676386%" y2="50.8869155%" id="linearGradient-1">
            <stop stop-color="#DCDBDB" offset="26%"></stop>
            <stop stop-color="#B2B2B2" offset="100%"></stop>
        </linearGradient>
        <linearGradient x1="100.262281%" y1="50.0229358%" x2="-0.353508772%" y2="50.0229358%" id="linearGradient-2">
            <stop stop-color="#DCDBDB" offset="26%"></stop>
            <stop stop-color="#B2B2B2" offset="100%"></stop>
        </linearGradient>
        <linearGradient x1="-34.6430417%" y1="-92.4170194%" x2="-74.0113333%" y2="-153.110893%" id="linearGradient-3">
            <stop stop-color="#DCDBDB" offset="26%"></stop>
            <stop stop-color="#B2B2B2" offset="100%"></stop>
        </linearGradient>
        <linearGradient x1="36.2434899%" y1="61.3613865%" x2="72.872472%" y2="-4.3999497%" id="linearGradient-4">
            <stop stop-color="#DCDBDB" offset="26%"></stop>
            <stop stop-color="#B2B2B2" offset="100%"></stop>
        </linearGradient>
        <linearGradient x1="-8.91456278%" y1="-56.8398542%" x2="40.4512915%" y2="33.6062708%" id="linearGradient-5">
            <stop stop-color="#DCDBDB" offset="26%"></stop>
            <stop stop-color="#B2B2B2" offset="100%"></stop>
        </linearGradient>
        <linearGradient x1="98.5920396%" y1="49.5146978%" x2="-1.21068317%" y2="50.4816115%" id="linearGradient-6">
            <stop stop-color="#DCDBDB" offset="26%"></stop>
            <stop stop-color="#B2B2B2" offset="100%"></stop>
        </linearGradient>
        <linearGradient x1="95.2686951%" y1="-37.8472375%" x2="48.0041211%" y2="56.4444292%" id="linearGradient-7">
            <stop stop-color="#DCDBDB" offset="26%"></stop>
            <stop stop-color="#B2B2B2" offset="100%"></stop>
        </linearGradient>
        <linearGradient x1="0.740740741%" y1="50.0692042%" x2="98.8888889%" y2="50.0692042%" id="linearGradient-8">
            <stop stop-color="#DCDBDB" offset="26%"></stop>
            <stop stop-color="#B2B2B2" offset="100%"></stop>
        </linearGradient>
        <linearGradient x1="0.0320512821%" y1="50.0344828%" x2="100.128205%" y2="50.0344828%" id="linearGradient-9">
            <stop stop-color="#DCDBDB" offset="26%"></stop>
            <stop stop-color="#B2B2B2" offset="100%"></stop>
        </linearGradient>
        <linearGradient x1="-0.0171353587%" y1="49.644164%" x2="99.5342227%" y2="50.4372795%" id="linearGradient-10">
            <stop stop-color="#DCDBDB" offset="26%"></stop>
            <stop stop-color="#B2B2B2" offset="100%"></stop>
        </linearGradient>
    </defs>
    <g id="1" stroke="none" stroke-width="1" fill="none" fill-rule="evenodd">
        <g id="HOME-4" transform="translate(-755.000000, -910.000000)">
            <g id="Group" transform="translate(354.000000, 899.000000)">
                <g id="qcad-logo" transform="translate(402.000000, 12.000000)">
                    <g id="Group-4" transform="translate(38.000000, 7.000000)" fill="#181818">
                        <path d="M14.4358383,18.0254206 L13.3172056,16.8265628 C11.9508148,17.7225788 10.3608496,18.1956313 8.73828267,18.1889012 C7.21503061,18.1991797 5.71777026,17.784749 4.40703506,16.9900434 C3.09527453,16.2070559 2.00560637,15.0873284 1.24559276,13.7413902 C-0.315468185,10.9719604 -0.315468185,7.56025636 1.24559276,4.79082656 C2.00609701,3.44527343 3.09565238,2.3256618 4.40703506,1.54217334 C5.71764883,0.747173139 7.21499054,0.332719845 8.73828267,0.343315504 C10.262038,0.33024522 11.7604751,0.742534139 13.0726006,1.53588562 C16.6741827,3.71182701 18.2705804,8.19165463 16.8839348,12.2312904 C16.5622269,13.1667945 16.0968512,14.0437691 15.5053453,14.829165 L18.4457221,18.0254206 L14.4358383,18.0254206 Z M11.263138,14.5671768 L7.43747555,10.380606 L9.59286484,8.32871471 L13.4686764,12.5907381 C14.3623168,11.2274557 14.6692866,9.54794041 14.3176053,7.94601865 C13.9659239,6.34409688 12.9865246,4.96067063 11.6090647,4.12013686 C10.7403146,3.5891878 9.74589324,3.31260985 8.73418886,3.32054899 C7.71840637,3.31353434 6.71994225,3.58995742 5.84600816,4.12013686 C4.06466206,5.19024688 2.97039762,7.14666387 2.97039762,9.26139257 C2.97039762,11.3761213 4.06466206,13.3325383 5.84600816,14.4026483 C6.72012421,14.9323862 7.71846646,15.2087756 8.73418886,15.2022362 C9.61525781,15.2034243 10.4831962,14.9835839 11.2621146,14.5619371 L11.263138,14.5671768 Z" id="Shape" fill-rule="nonzero"></path>
                        <path d="M29.8656356,18.2191817 C28.3409021,18.2285676 26.8429649,17.8087763 25.5354114,17.0056525 C24.226632,16.2168474 23.1415104,15.0920224 22.387274,13.7423279 C19.9870533,9.48032982 21.3924512,4.03386278 25.5354114,1.54206317 C26.8457269,0.747246787 28.3426903,0.332800272 29.8656356,0.343205334 C31.0711713,0.341209608 32.263547,0.599749082 33.3648169,1.10192305 C34.4750304,1.60233803 35.4652259,2.34479207 36.2663025,3.27747276 L34.1078429,5.2685828 C33.565704,4.65728236 32.9056739,4.16771533 32.1694253,3.83079176 C31.4456723,3.49647392 30.6606497,3.3239215 29.866659,3.32463063 C28.8550516,3.31637488 27.860637,3.59258846 26.9917832,4.12317055 C24.2589956,5.79780723 23.3345912,9.40190042 24.9111059,12.235372 C25.4106559,13.1382597 26.132651,13.8912694 27.0050881,14.4193054 C28.6257861,15.4174387 30.6310785,15.5027296 32.3270369,14.6456631 C33.0959483,14.2573753 33.7741786,13.7040894 34.3156036,13.0234324 L36.605065,14.8877402 C34.9721746,16.9923123 32.4906817,18.2189664 29.8656356,18.2191817 Z" id="Path"></path>
                        <path d="M43.2662302,16.1742964 L42.1752307,18.5720121 L38.9472641,18.5720121 L46.8831085,1.04395604 L54.4279945,18.5720121 L51.2266376,18.5720121 L50.1857872,16.1742964 L43.2662302,16.1742964 Z M46.8043028,8.31465154 L44.6182099,13.1635285 L48.8849801,13.1635285 L46.8043028,8.31465154 Z" id="Shape" fill-rule="nonzero"></path>
                        <path d="M62.719331,18.5722163 L57.3605379,18.5722163 L57.3605379,1.04416026 L62.7203545,1.04416026 C63.8779332,1.03601173 65.0247725,1.271798 66.0895575,1.73685696 C67.1277529,2.19046496 68.0557807,2.87237975 68.8078452,3.73425472 C69.5222879,4.53960271 70.074885,5.48110297 70.4341099,6.50504153 C71.179103,8.63208068 71.179103,10.9580971 70.4341099,13.0851362 C70.0711415,14.1151073 69.5191368,15.0644909 68.8078452,15.8821219 C68.0557807,16.7439968 67.1277529,17.4259116 66.0895575,17.8795196 C65.0244559,18.3447196 63.877254,18.5805088 62.719331,18.5722163 Z M60.2732814,15.5886951 L62.719331,15.5886951 C63.4649283,15.5955872 64.2040145,15.4461571 64.8910955,15.149603 C65.5513414,14.8620954 66.1420701,14.4299939 66.6217523,13.8836762 C67.0948687,13.3394611 67.4601896,12.7062886 67.6974001,12.0193684 C67.9495694,11.3014524 68.0770372,10.5438729 68.0740303,9.78094152 C68.0765084,9.03034668 67.9489913,8.28524733 67.6974001,7.58024095 C67.4566273,6.89820113 67.0900633,6.26990792 66.6176585,5.72955657 C65.662437,4.61174041 64.3616298,4.05283232 62.7152372,4.05283232 L60.2691876,4.05283232 L60.2732814,15.5886951 Z" id="Shape" fill-rule="nonzero"></path>
                    </g>
                    <g id="QCAD_logo">
                        <ellipse id="Oval" stroke="#FFFFFF" stroke-width="1.04" fill="#191918" cx="15.9722222" cy="16" rx="15.9722222" ry="16"></ellipse>
                        <polygon id="Path" fill="url(#linearGradient-1)" opacity="0.57" points="11.0557726 7.5 10.8810764 11.975 13.0273438 13.05 13.7760417 10.95"></polygon>
                        <polygon id="Path" fill="url(#linearGradient-2)" opacity="0.57" points="21.2380642 7.75 21.2630208 12.2 19.0917969 13.2 18.4179688 11.1"></polygon>
                        <polygon id="Path" fill="url(#linearGradient-3)" opacity="0.57" points="27.3773872 16.375 24.9815538 18.95 23.1846788 18.35 23.9333767 16.75"></polygon>
                        <polygon id="Path" fill="url(#linearGradient-4)" opacity="0.57" points="5.06618924 16.725 7.58680556 19.2 9.35872396 18.525 8.53515625 16.975"></polygon>
                        <polygon id="Path" fill="url(#linearGradient-5)" opacity="0.88" points="27.6519097 20.275 19.6158854 17.4 16.5212674 20.65 19.7406684 23.4"></polygon>
                        <polygon id="Path" fill="url(#linearGradient-6)" opacity="0.88" points="5.98958333 10.175 16.0720486 14.775 16.0221354 20.6 10.531684 20.25"></polygon>
                        <polygon id="Path" fill="url(#linearGradient-7)" opacity="0.88" points="4.86653646 20.725 12.7528212 17.525 15.9971788 20.65 12.8776042 23.525"></polygon>
                        <polygon id="Path" fill="url(#linearGradient-8)" opacity="0.85" points="15.9472656 20.95 16.2467448 20.725 16.5711806 20.95 16.5711806 27.95 15.8973524 27.95"></polygon>
                        <polygon id="Path" fill="url(#linearGradient-9)" opacity="0.88" points="16.0720486 5.9 12.1289062 16.3 16.2717014 20.4 19.9153646 16.275"></polygon>
                        <polygon id="Path" fill="url(#linearGradient-10)" opacity="0.88" points="26.5538194 10.15 16.4463976 14.75 16.4963108 20.575 21.9867622 20.225"></polygon>
                    </g>
                </g>
            </g>
        </g>
    </g>
</svg>